<svg id="Bold" xmlns="http://www.w3.org/2000/svg" viewBox="0 0 24 24"><title>cat</title><path d="M7.2,17.738a.248.248,0,0,0-.131.334L8.221,20.61a1.074,1.074,0,0,0,2.047-.543L10.027,17.5a.251.251,0,0,0-.262-.227A7.755,7.755,0,0,0,7.2,17.738Z"/><path d="M18.516,20.348a.016.016,0,0,0,0,.015l.14.21a1.408,1.408,0,0,0,1.179.674,1.28,1.28,0,0,0,.606-.151,1.05,1.05,0,0,0,.463-1.384c-.1-.226-.716-1.766-1.09-2.7a.25.25,0,0,0-.474.033Z"/><path d="M20.7,7.407c-.271-.163-.577-.346-.922-.562l-.749-1.829a.706.706,0,0,0-.651-.5h0a.706.706,0,0,0-.653.5L16.436,8.087a3.492,3.492,0,0,1-3.231,2.154H6.015A2.614,2.614,0,0,1,5,7.282c.253-.977.837-1.591,1.071-1.6h0c.029,0,.112.088.184.3a1.122,1.122,0,0,0,1.389.724A1.383,1.383,0,0,0,8.7,5.142,2.523,2.523,0,0,0,5.953,2.76C3.99,2.923,1.871,5.065,1.871,8.241a4.623,4.623,0,0,0,2.118,4.323c-.907,2.49-2.225,5.773-2.77,7.119a1.088,1.088,0,0,0,.536,1.428,1.39,1.39,0,0,0,1.8-.6c.145-.242.281-.479.412-.707,1.278-2.221,2.049-3.562,6.9-3.562,1.971,0,2.967.193,3.435.664s.543,1.367.531,3.075a1.253,1.253,0,0,0,1.253,1.261,1.5,1.5,0,0,0,1.456-1.136l1.3-5.189,1.337-2.675h.879a1.814,1.814,0,0,0,1.812-1.812C22.871,8.716,22.234,8.333,20.7,7.407ZM19.337,9.741a.75.75,0,1,1,.75-.75A.749.749,0,0,1,19.337,9.741Z"/></svg>